<?xml version="1.0" standalone="no"?>
<!DOCTYPE svg PUBLIC "-//W3C//DTD SVG 20010904//EN"
 "http://www.w3.org/TR/2001/REC-SVG-20010904/DTD/svg10.dtd">
<svg version="1.0" xmlns="http://www.w3.org/2000/svg"
 width="16.000000pt" height="16.000000pt" viewBox="0 0 16.000000 16.000000"
 preserveAspectRatio="xMidYMid meet">
<metadata>
Created by potrace 1.11, written by Peter Selinger 2001-2013
</metadata>
<g transform="translate(0.000000,16.000000) scale(0.005112,-0.005112)"
fill="#000000" stroke="none">
<path d="M154 2311 c-2 -2 -4 -43 -4 -91 l0 -87 140 1 140 0 0 83 c0 46 -1 86
-2 89 -3 7 -267 12 -274 5z"/>
<path d="M1994 2303 l-181 -3 -7 -228 c-13 -451 -35 -894 -52 -1034 l-6 -48
364 0 c317 0 375 3 455 19 223 46 375 186 453 418 30 88 34 112 38 240 3 109
0 160 -13 218 -45 205 -178 349 -370 400 -65 18 -340 25 -681 18z m508 -217
c82 -18 138 -52 182 -113 47 -66 67 -132 73 -243 13 -250 -92 -437 -282 -505
-38 -13 -92 -19 -234 -22 l-184 -6 6 129 c4 71 12 264 18 429 5 165 12 310 15
323 4 22 6 22 172 22 105 0 192 -6 234 -14z"/>
<path d="M676 2018 c-8 -354 -37 -911 -51 -1000 l-4 -28 138 0 138 0 7 188 c4
103 12 222 17 264 29 235 111 328 289 328 86 0 144 -29 174 -85 19 -36 21 -55
18 -183 -1 -78 -9 -224 -17 -325 -8 -100 -15 -185 -15 -188 0 -3 65 -5 144 -5
l143 0 8 180 c4 98 8 187 10 195 1 9 6 95 10 193 6 148 4 185 -9 232 -20 68
-71 128 -136 161 -125 63 -360 58 -477 -10 -23 -14 -62 -48 -87 -77 l-46 -52
6 84 c3 47 10 143 15 214 5 72 9 145 9 163 l0 33 -138 0 -139 0 -7 -282z"/>
<path d="M145 1955 c-2 -5 -6 -129 -9 -275 -6 -248 -17 -465 -32 -622 l-7 -68
147 0 146 0 0 138 c0 138 13 493 26 717 l7 120 -138 0 c-83 0 -139 -4 -140
-10z"/>
</g>
</svg>
