<svg id="live-streaming" xmlns="http://www.w3.org/2000/svg" width="92.975" height="69.442" viewBox="0 0 92.975 69.442">
  <path id="Path_91" data-name="Path 91" d="M90.512,175.587a3.116,3.116,0,0,0-1.562.451l-15.225,8.79v-8.59a3.182,3.182,0,0,0-3.178-3.178H20.72a8.565,8.565,0,0,0-15.054,5.6v11H2.507A2.506,2.506,0,0,0,.013,192.4a14.31,14.31,0,0,0,12.863,12.84v6.266H4.611a3.181,3.181,0,0,0-3.178,3.178v2.547a3.182,3.182,0,0,0,3.178,3.178h9.372a1.362,1.362,0,1,0,0-2.724H4.611a.46.46,0,0,1-.454-.454v-2.547a.46.46,0,0,1,.454-.454H23.863a.46.46,0,0,1,.454.454v2.547a.46.46,0,0,1-.454.454H20.339a1.362,1.362,0,1,0,0,2.724h3.524a3.179,3.179,0,0,0,3.167-2.975H70.547a3.182,3.182,0,0,0,3.178-3.178v-8.59l15.226,8.791a3.115,3.115,0,0,0,1.561.451h0a2.336,2.336,0,0,0,1.857-.88,2.982,2.982,0,0,0,.607-1.895v-33.77a2.518,2.518,0,0,0-2.463-2.775ZM8.39,178.655a5.846,5.846,0,0,1,11.693,0v7.677H8.39Zm0,10.4H20.083v1.956a5.846,5.846,0,1,1-11.693,0v-1.956Zm-1.947,10.5a11.544,11.544,0,0,1-3.694-7.178H5.776a8.57,8.57,0,0,0,16.922,0h3.027a11.562,11.562,0,0,1-19.282,7.178ZM71,214.255a.46.46,0,0,1-.454.454H27.041v-.026a3.181,3.181,0,0,0-3.178-3.178H15.6v-6.266A14.31,14.31,0,0,0,28.461,192.4a2.506,2.506,0,0,0-2.495-2.748h-3.16v-11a8.532,8.532,0,0,0-.5-2.872H70.547a.46.46,0,0,1,.454.454Zm19.25-2.194-6.457-3.728v-5.758a1.362,1.362,0,1,0-2.724,0v4.186l-7.345-4.241V187.973l7.345-4.241v12.486a1.362,1.362,0,1,0,2.724,0V182.16l6.457-3.728Z" transform="translate(-0.001 -150.965)" fill="#fff"/>
  <path id="Path_92" data-name="Path 92" d="M209.037,252.6l-16.63-9.5a2.755,2.755,0,0,0-1.372-.389,2.3,2.3,0,0,0-2.243,2.487v18.973a2.3,2.3,0,0,0,2.243,2.487,2.754,2.754,0,0,0,1.372-.389l16.63-9.5a2.292,2.292,0,0,0,0-4.167Zm-17.521,11.039V245.726l15.676,8.956Z" transform="translate(-154.51 -210.401)" fill="#fff"/>
  <path id="Path_93" data-name="Path 93" d="M66.24,204.112H62.807a1.362,1.362,0,0,0,0,2.724h3.432a1.362,1.362,0,0,0,0-2.724Z" transform="translate(-50.287 -178.813)" fill="#fff"/>
  <path id="Path_94" data-name="Path 94" d="M66.24,231.835H62.807a1.362,1.362,0,0,0,0,2.724h3.432a1.362,1.362,0,0,0,0-2.724Z" transform="translate(-50.287 -201.502)" fill="#fff"/>
  <path id="Path_95" data-name="Path 95" d="M236.28,153.894a5.474,5.474,0,0,0-4.016,1.767,1.362,1.362,0,1,0,2,1.844,2.723,2.723,0,0,1,4.023,0,1.362,1.362,0,1,0,2-1.844,5.473,5.473,0,0,0-4.016-1.767Z" transform="translate(-189.793 -137.714)" fill="#fff"/>
  <path id="Path_96" data-name="Path 96" d="M224.373,129.55a1.362,1.362,0,1,0,2-1.845,10.837,10.837,0,0,0-15.969,0,1.362,1.362,0,0,0,2,1.845,8.113,8.113,0,0,1,11.961,0Z" transform="translate(-171.905 -113.408)" fill="#fff"/>
  <path id="Path_97" data-name="Path 97" d="M202.163,97.319a1.362,1.362,0,1,0,.331-2.7A16.237,16.237,0,0,0,188.56,99.75a1.362,1.362,0,1,0,2,1.845,13.517,13.517,0,0,1,11.6-4.275Z" transform="translate(-154.025 -89.102)" fill="#fff"/>
  <path id="Path_98" data-name="Path 98" d="M295,111.591a1.362,1.362,0,0,0,2-1.845,16.363,16.363,0,0,0-3.427-2.832,1.362,1.362,0,0,0-1.434,2.316A13.626,13.626,0,0,1,295,111.591Z" transform="translate(-238.565 -99.099)" fill="#fff"/>
  <path id="Path_99" data-name="Path 99" d="M167.707,74.078a1.358,1.358,0,0,0,1-.44,18.884,18.884,0,0,1,27.833,0,1.362,1.362,0,1,0,2-1.845,21.608,21.608,0,0,0-31.841,0,1.362,1.362,0,0,0,1,2.284Z" transform="translate(-136.139 -64.795)" fill="#fff"/>
</svg>
