<svg id="layer" xmlns="http://www.w3.org/2000/svg" width="79.103" height="72.824" viewBox="0 0 79.103 72.824">
  <path id="Path_83" data-name="Path 83" d="M1695.706,710.138a1.25,1.25,0,0,0,.888-.368l7.534-7.534a1.255,1.255,0,0,0,0-1.775l-3.506-3.507h.735a1.256,1.256,0,1,0,0-2.511h-3.767c-.022,0-.042.007-.063.009a1.194,1.194,0,0,0-.148.02c-.03.006-.063.005-.092.013a.081.081,0,0,0,0,.01,1.307,1.307,0,0,0-.18.045,1.254,1.254,0,0,0-.775,1.16v3.767a1.256,1.256,0,0,0,2.511,0v-.736l2.619,2.619-6.646,6.646a1.256,1.256,0,0,0,.888,2.143Z" transform="translate(-1661.805 -687.537)" fill="#fff"/>
  <path id="Path_84" data-name="Path 84" d="M1704.129,2619.019l-7.534-7.534a1.255,1.255,0,0,0-1.776,1.775l6.646,6.646-2.619,2.619v-.736a1.256,1.256,0,0,0-2.511,0v3.767a1.236,1.236,0,0,0,.98,1.222h.006a1.289,1.289,0,0,0,.269.031h3.767a1.256,1.256,0,1,0,0-2.511h-.735l3.506-3.507A1.255,1.255,0,0,0,1704.129,2619.019Z" transform="translate(-1661.806 -2560.894)" fill="#fff"/>
  <path id="Path_85" data-name="Path 85" d="M2274.178,1249.031a23.852,23.852,0,0,1-5.57,15.3,1.256,1.256,0,1,0,1.924,1.614,26.316,26.316,0,0,0,0-33.833,1.256,1.256,0,0,0-1.924,1.614A23.848,23.848,0,0,1,2274.178,1249.031Z" transform="translate(-2222.699 -1212.619)" fill="#fff"/>
  <path id="Path_86" data-name="Path 86" d="M2071.3,1429.435a1.256,1.256,0,0,0-.2,1.764,17.515,17.515,0,0,1,0,21.732,1.256,1.256,0,0,0,1.969,1.559,20.028,20.028,0,0,0,0-24.851A1.257,1.257,0,0,0,2071.3,1429.435Z" transform="translate(-2029.67 -1405.653)" fill="#fff"/>
  <path id="Path_87" data-name="Path 87" d="M1873.014,1644.07a1.255,1.255,0,0,0,1.749-.306,13.765,13.765,0,0,0,0-15.77,1.256,1.256,0,0,0-2.055,1.444,11.253,11.253,0,0,1,0,12.883A1.256,1.256,0,0,0,1873.014,1644.07Z" transform="translate(-1835.811 -1599.467)" fill="#fff"/>
  <path id="Path_88" data-name="Path 88" d="M2751.256,460.457a1.256,1.256,0,0,0,1.255-1.256v-10.78l11.667,11.667a1.258,1.258,0,0,0,.275.2,1.247,1.247,0,0,0,1.87-1.089V390.144a1.256,1.256,0,1,0-2.511,0v10.78l-11.667-11.667a1.256,1.256,0,0,0-2.145.887V459.2A1.256,1.256,0,0,0,2751.256,460.457Zm1.255-39.659,11.3,11.3v10.261l-11.3-11.3Zm11.3,7.749-11.3-11.3v-10.26l11.3,11.3Zm-11.3,6.063,11.3,11.3v10.261l-11.3-11.3Zm11.3-19.874-11.3-11.3V393.175l11.3,11.3Z" transform="translate(-2693.499 -388.888)" fill="#fff"/>
  <path id="Path_89" data-name="Path 89" d="M3640.145,461.713a1.256,1.256,0,0,0,1.256-1.256V390.144a1.256,1.256,0,1,0-2.511,0v70.313A1.256,1.256,0,0,0,3640.145,461.713Z" transform="translate(-3562.298 -388.888)" fill="#fff"/>
  <path id="Path_90" data-name="Path 90" d="M255.022,1119h9.7l8.527,5.117a3.719,3.719,0,0,0,5.632-3.189v-9.577a7.523,7.523,0,0,0,0-14.838v-9.574a3.719,3.719,0,0,0-5.632-3.189l-8.527,5.116h-9.7a5.028,5.028,0,0,0-5.022,5.022v20.089A5.028,5.028,0,0,0,255.022,1119Zm27.623-15.067a5.023,5.023,0,0,1-3.767,4.854v-9.711A5.026,5.026,0,0,1,282.645,1103.934Zm-8.107-18.03a1.207,1.207,0,0,1,1.829,1.036v33.99a1.208,1.208,0,0,1-1.829,1.036l-8.215-4.93v-26.2Zm-22.028,7.986a2.514,2.514,0,0,1,2.511-2.511h8.789v25.112h-8.789a2.514,2.514,0,0,1-2.511-2.511Z" transform="translate(-250 -1067.521)" fill="#fff"/>
</svg>
