<svg id="internet" xmlns="http://www.w3.org/2000/svg" width="70.397" height="72.824" viewBox="0 0 70.397 72.824">
  <path id="Path_76" data-name="Path 76" d="M95.461,98.459a1.214,1.214,0,1,0,1.725-1.708,23.484,23.484,0,0,1,0-32.97,1.214,1.214,0,0,0-1.725-1.708A25.911,25.911,0,0,0,95.461,98.459Z" transform="translate(-78.29 -54.778)" fill="#fff"/>
  <path id="Path_77" data-name="Path 77" d="M361.5,98.468a1.214,1.214,0,0,0,1.716-.009,25.912,25.912,0,0,0,0-36.386,1.214,1.214,0,1,0-1.725,1.708,23.484,23.484,0,0,1,0,32.971A1.214,1.214,0,0,0,361.5,98.468Z" transform="translate(-309.987 -54.778)" fill="#fff"/>
  <path id="Path_78" data-name="Path 78" d="M35.167,66.977a1.214,1.214,0,0,0,.863-2.068,33.363,33.363,0,0,1,0-46.842A1.214,1.214,0,1,0,34.3,16.36a35.79,35.79,0,0,0,0,50.257,1.21,1.21,0,0,0,.863.36Z" transform="translate(-24 -16)" fill="#fff"/>
  <path id="Path_79" data-name="Path 79" d="M416.345,41.489a33.075,33.075,0,0,1-9.6,23.421,1.214,1.214,0,1,0,1.725,1.708,35.79,35.79,0,0,0,0-50.257,1.214,1.214,0,1,0-1.725,1.708,33.075,33.075,0,0,1,9.6,23.421Z" transform="translate(-348.376 -16)" fill="#fff"/>
  <path id="Path_80" data-name="Path 80" d="M157.48,130.663a1.214,1.214,0,0,0,.863-2.068,13.6,13.6,0,0,1,0-19.1,1.214,1.214,0,1,0-1.725-1.708,16.032,16.032,0,0,0,0,22.515A1.21,1.21,0,0,0,157.48,130.663Z" transform="translate(-132.58 -93.557)" fill="#fff"/>
  <path id="Path_81" data-name="Path 81" d="M316.244,130.311a1.214,1.214,0,0,0,1.716-.009,16.033,16.033,0,0,0,0-22.515,1.214,1.214,0,1,0-1.725,1.708,13.605,13.605,0,0,1,0,19.1,1.214,1.214,0,0,0,.008,1.716Z" transform="translate(-271.6 -93.557)" fill="#fff"/>
  <path id="Path_82" data-name="Path 82" d="M89.046,180.419H67.2v-24.4a6.069,6.069,0,1,0-2.427,0v24.4H42.924A10.936,10.936,0,0,0,32,191.343V196.2a1.214,1.214,0,0,0,1.214,1.214H98.756a1.214,1.214,0,0,0,1.214-1.214v-4.855A10.936,10.936,0,0,0,89.046,180.419Zm-26.7-30.343a3.641,3.641,0,1,1,3.641,3.641A3.641,3.641,0,0,1,62.343,150.076Zm35.2,44.908H34.427v-3.641a8.506,8.506,0,0,1,8.5-8.5H89.046a8.506,8.506,0,0,1,8.5,8.5Z" transform="translate(-30.786 -124.587)" fill="#fff"/>
  <circle id="Ellipse_2" data-name="Ellipse 2" cx="1.272" cy="1.272" r="1.272" transform="translate(33.521 62.975)" fill="#fff"/>
  <circle id="Ellipse_3" data-name="Ellipse 3" cx="1.272" cy="1.272" r="1.272" transform="translate(38.607 62.975)" fill="#fff"/>
  <circle id="Ellipse_4" data-name="Ellipse 4" cx="1.272" cy="1.272" r="1.272" transform="translate(43.694 62.975)" fill="#fff"/>
  <circle id="Ellipse_5" data-name="Ellipse 5" cx="1.272" cy="1.272" r="1.272" transform="translate(29.282 62.975)" fill="#fff"/>
  <circle id="Ellipse_6" data-name="Ellipse 6" cx="1.272" cy="1.272" r="1.272" transform="translate(24.196 62.975)" fill="#fff"/>
</svg>
