<svg id="fast-internet" xmlns="http://www.w3.org/2000/svg" width="61.589" height="72.996" viewBox="0 0 61.589 72.996">
  <path id="Path_70" data-name="Path 70" d="M180.546,336a12.546,12.546,0,1,0,12.546,12.546A12.561,12.561,0,0,0,180.546,336Zm0,22.811a10.265,10.265,0,1,1,10.265-10.265A10.277,10.277,0,0,1,180.546,358.811Z" transform="translate(-149.751 -288.097)" fill="#fff"/>
  <path id="Path_71" data-name="Path 71" d="M229.745,416a5.662,5.662,0,0,0-4.032,1.671,1.14,1.14,0,0,0,1.612,1.612,3.421,3.421,0,0,1,4.839,0,1.141,1.141,0,0,0,1.614-1.612A5.662,5.662,0,0,0,229.747,416Z" transform="translate(-198.95 -356.691)" fill="#fff"/>
  <path id="Path_72" data-name="Path 72" d="M203.084,387.007a1.14,1.14,0,0,0,1.612,1.612,7.985,7.985,0,0,1,11.292,0,1.141,1.141,0,0,0,1.614-1.612,10.264,10.264,0,0,0-14.516,0Z" transform="translate(-179.547 -329.253)" fill="#fff"/>
  <path id="Path_73" data-name="Path 73" d="M98.233,38.852a19.386,19.386,0,0,1,13.708,33.1,1.143,1.143,0,0,0,0,1.614l3.226,3.226a1.143,1.143,0,0,0,1.614,0,26.234,26.234,0,1,0-37.1,0,1.141,1.141,0,0,0,1.612,0l3.226-3.226a1.143,1.143,0,0,0,0-1.614,19.386,19.386,0,0,1,13.708-33.1Zm17.721,35.5-1.615-1.615a21.488,21.488,0,0,0,5.533-13.353h2.285A23.755,23.755,0,0,1,115.954,74.35Zm6.2-17.249h-2.284a21.579,21.579,0,0,0-5.54-13.347l1.615-1.615A23.864,23.864,0,0,1,122.156,57.1ZM99.373,34.317a23.864,23.864,0,0,1,14.963,6.207l-1.615,1.615A21.6,21.6,0,0,0,99.373,36.6V34.315ZM82.125,72.735,80.51,74.35a23.755,23.755,0,0,1-6.2-14.968h2.285A21.485,21.485,0,0,0,82.125,72.735ZM76.592,57.1H74.308a23.864,23.864,0,0,1,6.207-14.963l1.615,1.615A21.6,21.6,0,0,0,76.591,57.1ZM82.13,40.526a23.864,23.864,0,0,1,14.963-6.207V36.6a21.579,21.579,0,0,0-13.347,5.54L82.13,40.527Z" transform="translate(-67.438 -27.446)" fill="#fff"/>
  <path id="Path_74" data-name="Path 74" d="M243.2,198.32a1.139,1.139,0,0,0-.316-1.581l-10.013-6.675a4.571,4.571,0,1,0-1.266,1.9l10.014,6.675a1.141,1.141,0,0,0,1.581-.316Zm-14.636-7.476a2.281,2.281,0,1,1,2.281-2.281A2.284,2.284,0,0,1,228.562,190.843Z" transform="translate(-197.767 -157.767)" fill="#fff"/>
  <path id="Path_75" data-name="Path 75" d="M92.571,9.02a30.8,30.8,0,1,0-36.69,48.722,1.141,1.141,0,0,0,1.106-2,28.514,28.514,0,1,1,27.616,0,1.141,1.141,0,0,0,.553,2.139,1.123,1.123,0,0,0,.552-.144A30.8,30.8,0,0,0,92.57,9.019Z" transform="translate(-40 0)" fill="#fff"/>
  <circle id="Ellipse_1" data-name="Ellipse 1" cx="1" cy="1" r="1" transform="translate(30 64.105)" fill="#fff"/>
</svg>
