<?xml version="1.0" encoding="utf-8"?><svg width="100%" height="100%" version="1.1" viewBox="52.43302 72.59055 635.9213 489.7795" style="background-color:#FFFFFF" xmlns:xlink="http://www.w3.org/1999/xlink" xmlns:inkscape="http://www.inkscape.org/namespaces/inkscape" xmlns="http://www.w3.org/2000/svg"><defs /><linearGradient id="gradient1" x1="49.99999%" y1="100%" x2="49.99999%" y2="0%"><stop offset="0%" stop-color="#FF9D00" stop-opacity="1" /><stop offset="100%" stop-color="#F44500" stop-opacity="1" /></linearGradient><linearGradient id="gradient2" x1="50%" y1="100%" x2="50%" y2="0%"><stop offset="0%" stop-color="#FF9D00" stop-opacity="1" /><stop offset="100%" stop-color="#F44500" stop-opacity="1" /></linearGradient><linearGradient id="gradient3" x1="49.99999%" y1="100%" x2="50.00001%" y2="0%"><stop offset="0%" stop-color="#FF9D00" stop-opacity="1" /><stop offset="100%" stop-color="#F44500" stop-opacity="1" /><stop offset="100%" stop-color="#F54800" stop-opacity="1" /><stop offset="0%" stop-color="#FE9700" stop-opacity="1" /></linearGradient><linearGradient id="gradient4" x1="50%" y1="100%" x2="50%" y2="0%"><stop offset="0%" stop-color="#FF9D00" stop-opacity="1" /><stop offset="100%" stop-color="#F44500" stop-opacity="1" /><stop offset="100%" stop-color="#F54800" stop-opacity="1" /><stop offset="0%" stop-color="#FE9700" stop-opacity="1" /></linearGradient><linearGradient id="gradient5" x1="49.99999%" y1="100%" x2="50%" y2="0%"><stop offset="0%" stop-color="#FF9D00" stop-opacity="1" /><stop offset="100%" stop-color="#F44500" stop-opacity="1" /><stop offset="100%" stop-color="#F54800" stop-opacity="1" /><stop offset="0%" stop-color="#FE9700" stop-opacity="1" /></linearGradient><linearGradient id="gradient6" x1="50.00002%" y1="100%" x2="50.00002%" y2="0%"><stop offset="0%" stop-color="#FF9D00" stop-opacity="1" /><stop offset="100%" stop-color="#F44500" stop-opacity="1" /><stop offset="100%" stop-color="#F54800" stop-opacity="1" /><stop offset="0%" stop-color="#FE9700" stop-opacity="1" /></linearGradient><linearGradient id="gradient7" x1="50%" y1="100%" x2="50%" y2="0%"><stop offset="0%" stop-color="#FAEBD7" stop-opacity="1" /><stop offset="100%" stop-color="#FAEBD7" stop-opacity="1" /><stop offset="89%" stop-color="#FAEBD7" stop-opacity="1" /><stop offset="0%" stop-color="#FAEBD7" stop-opacity="1" /><stop offset="91%" stop-color="#FAEBD7" stop-opacity="1" /></linearGradient><linearGradient id="gradient8" x1="50%" y1="100%" x2="50.00001%" y2="0%"><stop offset="0%" stop-color="#FF9D00" stop-opacity="1" /><stop offset="100%" stop-color="#F44500" stop-opacity="1" /><stop offset="100%" stop-color="#F54800" stop-opacity="1" /><stop offset="0%" stop-color="#FE9700" stop-opacity="1" /></linearGradient><linearGradient id="gradient9" x1="49.99999%" y1="100%" x2="49.99999%" y2="0%"><stop offset="0%" stop-color="#FF9D00" stop-opacity="1" /><stop offset="100%" stop-color="#F44500" stop-opacity="1" /><stop offset="100%" stop-color="#F54800" stop-opacity="1" /><stop offset="0%" stop-color="#FE9700" stop-opacity="1" /></linearGradient><linearGradient id="gradient10" x1="50%" y1="100%" x2="50%" y2="0%"><stop offset="0%" stop-color="#FF9D00" stop-opacity="1" /><stop offset="100%" stop-color="#F44500" stop-opacity="1" /><stop offset="100%" stop-color="#F54800" stop-opacity="1" /><stop offset="0%" stop-color="#FE9700" stop-opacity="1" /></linearGradient><g id="layer1" inkscape:label="Layer 1" inkscape:groupmode="layer"><rect x="146.1417" y="186.4567" width="181.4173" height="70.55118" rx="12.59842" ry="12.59842" opacity="1" stroke="#939393" stroke-opacity="1" stroke-width="2" stroke-linecap="butt" stroke-linejoin="bevel" stroke-dasharray="none" fill="url(#gradient1)" /><text x="206.8504" y="215.8323" font-size="16" fill="#FFFFFF" fill-opacity="1" font-family="Arial" font-weight="bold" font-style="normal">项目总监
</text><text x="214.8504" y="238.8323" font-size="16" fill="#FFFFFF" fill-opacity="1" font-family="Arial" font-weight="bold" font-style="normal">石骏熙</text><rect x="413.2285" y="186.4567" width="176.3779" height="70.55118" rx="12.59842" ry="12.59842" opacity="1" stroke="#939393" stroke-opacity="1" stroke-width="2" stroke-linecap="butt" stroke-linejoin="bevel" stroke-dasharray="none" fill="url(#gradient2)" /><text x="439.4175" y="215.8323" font-size="16" fill="#FFFFFF" fill-opacity="1" font-family="Arial" font-weight="bold" font-style="normal">全球业务发展总监
</text><text x="479.4175" y="238.8323" font-size="16" fill="#FFFFFF" fill-opacity="1" font-family="Arial" font-weight="bold" font-style="normal">林忠祥</text><rect x="282.2047" y="75.59055" width="181.4173" height="70.55118" rx="12.59842" ry="12.59842" opacity="1" stroke="#939393" stroke-opacity="1" stroke-width="2" stroke-linecap="butt" stroke-linejoin="bevel" stroke-dasharray="none" fill="url(#gradient3)" /><text x="302.9133" y="104.9661" font-size="16" fill="#FFFFFF" fill-opacity="1" font-family="Arial" font-weight="bold" font-style="normal">常务董事及首席顾问
</text><text x="348.6907" y="127.9661" font-size="16" fill="#FFFFFF" fill-opacity="1" font-family="Arial" font-weight="bold" font-style="normal"> 夏德勤</text><rect x="55.43307" y="382.9921" width="468.6614" height="70.55118" rx="12.59842" ry="12.59842" opacity="1" stroke="#939393" stroke-opacity="1" stroke-width="2" stroke-linecap="butt" stroke-linejoin="bevel" stroke-dasharray="none" fill="url(#gradient4)" /><text x="154.4239" y="412.3677" font-size="16" fill="#FFFFFF" fill-opacity="0.9134078" font-family="Arial" font-weight="bold" font-style="normal">咨询顾问      项目经理         技术工程师
</text><text x="79.30284" y="435.3677" font-size="16" fill="#FFFFFF" fill-opacity="0.9134078" font-family="Arial" font-weight="bold" font-style="normal">项目           测试和验收           研究和发展                问题排查</text><rect x="55.43307" y="468.6614" width="629.9213" height="40.31501" rx="12.59842" ry="12.59842" opacity="1" stroke="#939393" stroke-opacity="1" stroke-width="2" stroke-linecap="butt" stroke-linejoin="bevel" stroke-dasharray="none" fill="url(#gradient5)" /><text x="199.9445" y="494.4189" font-size="16" fill="#FFFFFF" fill-opacity="1" font-family="Arial" font-weight="bold" font-style="normal">CAD和BIM绘图员        行政管理            财务管理</text><rect x="539.2126" y="297.3229" width="146.1418" height="156.2204" rx="12.59842" ry="12.59842" opacity="1" stroke="#939393" stroke-opacity="1" stroke-width="2" stroke-linecap="butt" stroke-linejoin="bevel" stroke-dasharray="none" fill="url(#gradient6)" /><text x="587.2834" y="336.0331" font-size="16" fill="#FFFFFF" fill-opacity="1" font-family="Arial" font-weight="bold" font-style="normal">业务总监
</text><text x="595.2834" y="359.0331" font-size="16" fill="#FFFFFF" fill-opacity="1" font-family="Arial" font-weight="bold" font-style="normal">荘国雄
</text><text x="619.2834" y="379.0331" font-size="16" fill="#FFFFFF" fill-opacity="1" font-family="Arial" font-weight="bold" font-style="normal">
</text><text x="619.2834" y="397.0331" font-size="16" fill="#FFFFFF" fill-opacity="1" font-family="Arial" font-weight="bold" font-style="normal">
</text><text x="619.2834" y="415.0331" font-size="16" fill="#FFFFFF" fill-opacity="1" font-family="Arial" font-weight="bold" font-style="normal">
</text><text x="571.2834" y="436.0331" font-size="16" fill="#FFFFFF" fill-opacity="1" font-family="Arial" font-weight="bold" font-style="normal">区域团队成员</text><rect x="55.43302" y="524.0945" width="629.9213" height="35.27558" rx="12.59842" ry="12.59842" opacity="1" stroke="#939393" stroke-opacity="1" stroke-width="2" stroke-linecap="butt" stroke-linejoin="bevel" stroke-dasharray="none" fill="url(#gradient7)" /><text x="141.3663" y="547.1323" font-size="14" fill="#000000" fill-opacity="1" font-family="Arial" font-weight="bold" font-style="normal">中国                       香港               印度                    马来西亚              菲律宾</text><rect x="55.43307" y="297.3229" width="146.1417" height="70.55118" rx="12.59842" ry="12.59842" opacity="1" stroke="#939393" stroke-opacity="1" stroke-width="2" stroke-linecap="butt" stroke-linejoin="bevel" stroke-dasharray="none" fill="url(#gradient8)" /><text x="90.50394" y="326.6985" font-size="16" fill="#FFFFFF" fill-opacity="1" font-family="Arial" font-weight="bold" font-style="normal">音视频总监
</text><text x="106.5039" y="349.6985" font-size="16" fill="#FFFFFF" fill-opacity="1" font-family="Arial" font-weight="bold" font-style="normal">石骏熙</text><rect x="216.6929" y="297.3228" width="146.1417" height="70.55118" rx="12.59842" ry="12.59842" opacity="1" stroke="#939393" stroke-opacity="1" stroke-width="2" stroke-linecap="butt" stroke-linejoin="bevel" stroke-dasharray="none" fill="url(#gradient9)" /><text x="235.7638" y="326.6984" font-size="16" fill="#FFFFFF" fill-opacity="1" font-family="Arial" font-weight="bold" font-style="normal">通讯及弱电总监
</text><text x="267.7638" y="349.6984" font-size="16" fill="#FFFFFF" fill-opacity="1" font-family="Arial" font-weight="bold" font-style="normal">冯德成</text><rect x="377.9528" y="297.3229" width="146.1418" height="70.55118" rx="12.59842" ry="12.59842" opacity="1" stroke="#939393" stroke-opacity="1" stroke-width="2" stroke-linecap="butt" stroke-linejoin="bevel" stroke-dasharray="none" fill="url(#gradient10)" /><text x="421.0237" y="326.6985" font-size="16" fill="#FFFFFF" fill-opacity="1" font-family="Arial" font-weight="bold" font-style="normal">声学总监
</text><text x="413.0237" y="349.6985" font-size="16" fill="#FFFFFF" fill-opacity="1" font-family="Arial" font-weight="bold" font-style="normal">关家振博士</text><path d="M236.8504 186.4567 L236.8504 178.8976 C236.8504 171.9685 242.5197 166.2992 249.4488 166.2992 L360.315 166.2992 C367.244 166.2992 372.9134 160.6299 372.9134 153.7008 L372.9134 146.1417" opacity="1" stroke="#000000" stroke-opacity="1" stroke-width="1" stroke-linecap="butt" stroke-linejoin="miter" stroke-dasharray="none" fill-opacity="0" /><path d="M501.4175 186.4567 L501.4175 178.8976 C501.4175 171.9685 495.7482 166.2992 488.8191 166.2992 L385.5118 166.2992 C378.5827 166.2992 372.9134 160.6299 372.9134 153.7008 L372.9134 146.1417" opacity="1" stroke="#000000" stroke-opacity="1" stroke-width="1" stroke-linecap="butt" stroke-linejoin="miter" stroke-dasharray="none" fill-opacity="0" /><path d="M236.8504 257.0079 L236.8504 264.567 C236.8504 271.4961 231.1811 277.1654 224.252 277.1654 L141.1024 277.1654 C134.1732 277.1654 128.5039 282.8347 128.5039 289.7638 L128.5039 297.3229" opacity="1" stroke="#000000" stroke-opacity="1" stroke-width="1" stroke-linecap="butt" stroke-linejoin="miter" stroke-dasharray="none" fill-opacity="0" /><path d="M451.0237 297.3229 L451.0237 289.7638 C451.0237 282.8347 445.3543 277.1653 438.4252 277.1653 L249.4488 277.1653 C242.5197 277.1653 236.8504 271.496 236.8504 264.5669 L236.8504 257.0079" opacity="1" stroke="#000000" stroke-opacity="1" stroke-width="1" stroke-linecap="butt" stroke-linejoin="miter" stroke-dasharray="none" fill-opacity="0" /><path d="M501.4175 257.0079 L501.4175 264.5669 C501.4175 271.496 507.0866 277.1653 514.0157 277.1653 L599.685 277.1653 C606.6142 277.1653 612.2834 282.8347 612.2834 289.7638 L612.2834 297.3229" opacity="1" stroke="#000000" stroke-opacity="1" stroke-width="1" stroke-linecap="butt" stroke-linejoin="miter" stroke-dasharray="none" fill-opacity="0" /><path d="M289.7638 297.3228 L289.7638 289.7638 C289.7638 282.8347 284.0945 277.1653 277.1653 277.1653 L249.4488 277.1653 C242.5197 277.1653 236.8504 271.496 236.8504 264.5669 L236.8504 257.0079" opacity="1" stroke="#000000" stroke-opacity="1" stroke-width="1" stroke-linecap="butt" stroke-linejoin="miter" stroke-dasharray="none" fill-opacity="0" /><path d="M289.7638 297.3228 L289.7638 289.7638 C289.7638 282.8347 295.4331 277.1653 302.3622 277.1653 L488.8191 277.1653 C495.7482 277.1653 501.4175 271.496 501.4175 264.5669 L501.4175 257.0079" opacity="1" stroke="#000000" stroke-opacity="1" stroke-width="1" stroke-linecap="butt" stroke-linejoin="miter" stroke-dasharray="none" fill-opacity="0" /><path d="M501.4175 257.0079 L501.4175 264.5669 C501.4175 271.496 495.7482 277.1653 488.8191 277.1653 L463.6221 277.1653 C456.693 277.1653 451.0237 282.8347 451.0237 289.7638 L451.0237 297.3229" opacity="1" stroke="#000000" stroke-opacity="1" stroke-width="1" stroke-linecap="butt" stroke-linejoin="miter" stroke-dasharray="none" fill-opacity="0" /><path d="M128.5039 297.3229 L128.5039 289.7638 C128.5039 282.8347 134.1732 277.1654 141.1024 277.1654 L224.252 277.1654 C231.1811 277.1654 236.8504 271.4961 236.8504 264.567 L236.8504 257.0079" opacity="1" stroke="#000000" stroke-opacity="1" stroke-width="1" stroke-linecap="butt" stroke-linejoin="miter" stroke-dasharray="none" fill-opacity="0" /><line x1="125.9843" y1="382.9921" x2="125.9843" y2="367.874" opacity="1" stroke="#000000" stroke-opacity="1" stroke-width="1" stroke-linecap="butt" stroke-linejoin="miter" stroke-dasharray="none" /><line x1="453.5433" y1="367.874" x2="453.5433" y2="382.9921" opacity="1" stroke="#000000" stroke-opacity="1" stroke-width="1" stroke-linecap="butt" stroke-linejoin="miter" stroke-dasharray="none" /><line x1="287.2441" y1="367.874" x2="287.2441" y2="382.9921" opacity="1" stroke="#000000" stroke-opacity="1" stroke-width="1" stroke-linecap="butt" stroke-linejoin="miter" stroke-dasharray="none" /><line x1="524.0945" y1="418.2677" x2="539.2126" y2="418.2677" opacity="1" stroke="#000000" stroke-opacity="1" stroke-width="1" stroke-linecap="butt" stroke-linejoin="miter" stroke-dasharray="none" /><line x1="604.7244" y1="453.5433" x2="604.7244" y2="468.6614" opacity="1" stroke="#000000" stroke-opacity="1" stroke-width="1" stroke-linecap="butt" stroke-linejoin="miter" stroke-dasharray="none" /><line x1="287.2441" y1="453.5433" x2="287.2441" y2="468.6614" opacity="1" stroke="#000000" stroke-opacity="1" stroke-width="1" stroke-linecap="butt" stroke-linejoin="miter" stroke-dasharray="none" /><path d="M128.5039 297.3229 L128.5039 289.7638 C128.5039 282.8347 134.1732 277.1654 141.1024 277.1654 L488.8191 277.1654 C495.7482 277.1654 501.4175 271.4961 501.4175 264.567 L501.4175 257.0079" opacity="1" stroke="#000000" stroke-opacity="1" stroke-width="1" stroke-linecap="butt" stroke-linejoin="miter" stroke-dasharray="none" fill-opacity="0" /></g></svg>